<svg width="68" height="68" viewBox="0 0 68 68" fill="none" xmlns="http://www.w3.org/2000/svg">
<g clip-path="url(#clip0_21_47)">
<path d="M40.7 62.8H12.35C11.1176 62.7974 9.93634 62.3066 9.06487 61.4351C8.1934 60.5637 7.70264 59.3824 7.7 58.15V9.85C7.70264 8.61756 8.1934 7.43634 9.06487 6.56487C9.93634 5.6934 11.1176 5.20264 12.35 5.2H36.86C37.3029 5.20781 37.7431 5.27165 38.17 5.39C38.17 5.39 38.17 5.46 38.17 5.5V16.9C38.1726 17.8142 38.537 18.6902 39.1834 19.3366C39.8298 19.983 40.7058 20.3474 41.62 20.35H53H53.1C53.2273 20.7957 53.2946 21.2565 53.3 21.72V40.6C53.3 40.7591 53.3632 40.9117 53.4757 41.0243C53.5883 41.1368 53.7409 41.2 53.9 41.2C54.0591 41.2 54.2117 41.1368 54.3243 41.0243C54.4368 40.9117 54.5 40.7591 54.5 40.6V21.7C54.5023 20.8589 54.3382 20.0257 54.0173 19.2483C53.6964 18.4709 53.2249 17.7645 52.63 17.17L41.41 5.89C40.2032 4.68273 38.567 4.00309 36.86 4H12.35C10.7985 4 9.31051 4.61634 8.21343 5.71343C7.11634 6.81051 6.5 8.29848 6.5 9.85V58.15C6.5 59.7015 7.11634 61.1895 8.21343 62.2866C9.31051 63.3837 10.7985 64 12.35 64H40.7C40.8591 64 41.0117 63.9368 41.1243 63.8243C41.2368 63.7117 41.3 63.5591 41.3 63.4C41.3 63.2409 41.2368 63.0883 41.1243 62.9757C41.0117 62.8632 40.8591 62.8 40.7 62.8ZM51.78 18C52.1055 18.3382 52.3846 18.7182 52.61 19.13H41.61C41.0133 19.13 40.441 18.8929 40.019 18.471C39.5971 18.049 39.36 17.4767 39.36 16.88V5.88C39.8052 6.11099 40.2131 6.40764 40.57 6.76L51.78 18Z" fill="#2583F4"/>
<path d="M49.5504 42.0997C47.3868 42.1096 45.2747 42.7602 43.4806 43.9694C41.6865 45.1786 40.2908 46.8922 39.4696 48.8939C38.6485 50.8956 38.4388 53.0957 38.8669 55.2164C39.2951 57.3372 40.3419 59.2837 41.8752 60.81C43.4086 62.3364 45.3598 63.3744 47.4825 63.7928C49.6052 64.2113 51.8043 63.9916 53.8022 63.1613C55.8002 62.3311 57.5074 60.9276 58.7084 59.128C59.9094 57.3284 60.5504 55.2133 60.5504 53.0497C60.5504 51.6075 60.2655 50.1795 59.7121 48.8478C59.1587 47.516 58.3477 46.3066 57.3256 45.2892C56.3035 44.2717 55.0904 43.4662 53.7561 42.9188C52.4218 42.3715 50.9926 42.0931 49.5504 42.0997ZM39.8004 53.0497C39.8006 50.712 40.6459 48.4532 42.1804 46.6897L55.9104 60.4297C54.4978 61.6509 52.764 62.4403 50.9154 62.704C49.0669 62.9676 47.1815 62.6943 45.4839 61.9166C43.7863 61.1389 42.348 59.8896 41.3403 58.3176C40.3327 56.7455 39.7981 54.917 39.8004 53.0497ZM56.8004 59.5897L43.0004 45.8397C44.8405 44.0978 47.2875 43.1423 49.821 43.1766C52.3546 43.2108 54.7749 44.232 56.5672 46.023C58.3596 47.8141 59.3825 50.2336 59.4186 52.7672C59.4547 55.3007 58.501 57.7484 56.7604 59.5897H56.8004Z" fill="#2583F4"/>
</g>
<defs>
<clipPath id="clip0_21_47">
<rect width="55" height="60" fill="white" transform="translate(6 4)"/>
</clipPath>
</defs>
</svg>
