<svg width="68" height="68" viewBox="0 0 68 68" fill="none" xmlns="http://www.w3.org/2000/svg">
<g clip-path="url(#clip0_21_51)">
<path d="M42.5644 35.2949H13.5644C13.4025 35.3145 13.2535 35.3926 13.1454 35.5146C13.0372 35.6366 12.9775 35.794 12.9775 35.957C12.9775 36.1201 13.0372 36.2774 13.1454 36.3994C13.2535 36.5214 13.4025 36.5996 13.5644 36.6192H15.5461V56.5519C15.5435 57.3977 15.7079 58.2357 16.0298 59.0178C16.3517 59.8 16.8248 60.5109 17.422 61.1099C18.0192 61.7089 18.7287 62.1841 19.5099 62.5084C20.2911 62.8326 21.1286 62.9995 21.9744 62.9995H39.9351C40.1094 62.9995 40.2766 62.9303 40.3999 62.807C40.5231 62.6837 40.5924 62.5165 40.5924 62.3422C40.5924 62.1679 40.5231 62.0007 40.3999 61.8774C40.2766 61.7541 40.1094 61.6849 39.9351 61.6849H21.9744C20.6189 61.6823 19.3197 61.1427 18.3613 60.1843C17.4029 59.2258 16.8633 57.9266 16.8607 56.5712V36.6192H42.5644C42.6581 36.6305 42.7531 36.6219 42.8432 36.5938C42.9332 36.5657 43.0163 36.5188 43.0869 36.4562C43.1576 36.3936 43.2141 36.3168 43.2528 36.2307C43.2915 36.1447 43.3115 36.0514 43.3115 35.957C43.3115 35.8627 43.2915 35.7694 43.2528 35.6833C43.2141 35.5973 43.1576 35.5204 43.0869 35.4579C43.0163 35.3953 42.9332 35.3484 42.8432 35.3203C42.7531 35.2922 42.6581 35.2835 42.5644 35.2949Z" fill="#2583F4"/>
<path d="M39.9354 45.6777H24.9327C24.7584 45.6777 24.5912 45.747 24.4679 45.8703C24.3446 45.9935 24.2754 46.1607 24.2754 46.3351C24.2754 46.5094 24.3446 46.6766 24.4679 46.7999C24.5912 46.9231 24.7584 46.9924 24.9327 46.9924H39.9354C40.1097 46.9924 40.2769 46.9231 40.4002 46.7999C40.5235 46.6766 40.5927 46.5094 40.5927 46.3351C40.5927 46.1607 40.5235 45.9935 40.4002 45.8703C40.2769 45.747 40.1097 45.6777 39.9354 45.6777Z" fill="#2583F4"/>
<path d="M56.5717 16.8417H52.4537V10.249C52.4486 8.8551 51.8913 7.52004 50.9038 6.53622C49.9164 5.55239 48.5793 4.99999 47.1854 5L20.8147 5C19.4174 5 18.0774 5.55505 17.0894 6.54306C16.1014 7.53106 15.5464 8.87108 15.5464 10.2683V16.861H11.4284C9.72681 16.861 8.09466 17.5356 6.88967 18.737C5.68467 19.9383 5.00515 21.5685 5.00003 23.27V42.0523C4.99749 42.8981 5.16188 43.7361 5.4838 44.5183C5.80571 45.3004 6.27882 46.0114 6.876 46.6104C7.47317 47.2093 8.18269 47.6846 8.96387 48.0088C9.74506 48.3331 10.5826 48.5 11.4284 48.5H13.5647C13.739 48.5 13.9062 48.4307 14.0295 48.3075C14.1528 48.1842 14.222 48.017 14.222 47.8427C14.222 47.6683 14.1528 47.5011 14.0295 47.3779C13.9062 47.2546 13.739 47.1853 13.5647 47.1853H11.4284C10.0729 47.1828 8.77372 46.6432 7.81528 45.6848C6.85683 44.7263 6.31725 43.4271 6.3147 42.0717V23.27C6.31726 21.9154 6.85715 20.6172 7.81587 19.6603C8.77459 18.7034 10.0738 18.166 11.4284 18.166H56.5717C57.9263 18.166 59.2255 18.7034 60.1842 19.6603C61.1429 20.6172 61.6828 21.9154 61.6854 23.27V43.8697C61.6854 44.044 61.7546 44.2112 61.8779 44.3345C62.0012 44.4577 62.1684 44.527 62.3427 44.527C62.517 44.527 62.6842 44.4577 62.8075 44.3345C62.9308 44.2112 63 44.044 63 43.8697V23.27C63 21.5651 62.3228 19.93 61.1172 18.7245C59.9117 17.5189 58.2766 16.8417 56.5717 16.8417ZM51.139 16.8417H16.861V10.249C16.8636 9.20121 17.2809 8.19706 18.0219 7.45615C18.7628 6.71525 19.7669 6.29789 20.8147 6.29533H47.1854C48.2332 6.29789 49.2373 6.71525 49.9782 7.45615C50.7191 8.19706 51.1365 9.20121 51.139 10.249V16.8417Z" fill="#2583F4"/>
<path d="M15.5464 22.7775C15.5464 22.6031 15.4772 22.4359 15.3539 22.3126C15.2306 22.1894 15.0634 22.1201 14.8891 22.1201H12.2501C12.0758 22.1201 11.9086 22.1894 11.7853 22.3126C11.662 22.4359 11.5928 22.6031 11.5928 22.7775C11.5928 22.9518 11.662 23.119 11.7853 23.2423C11.9086 23.3655 12.0758 23.4348 12.2501 23.4348H14.8891C15.0627 23.4323 15.2284 23.3622 15.3511 23.2395C15.4739 23.1168 15.5439 22.951 15.5464 22.7775Z" fill="#2583F4"/>
<path d="M39.9357 52.4346H25.4357C25.2613 52.4346 25.0941 52.5038 24.9709 52.6271C24.8476 52.7504 24.7783 52.9176 24.7783 53.0919C24.7783 53.2662 24.8476 53.4334 24.9709 53.5567C25.0941 53.68 25.2613 53.7492 25.4357 53.7492H39.9357C40.11 53.7492 40.2772 53.68 40.4005 53.5567C40.5237 53.4334 40.593 53.2662 40.593 53.0919C40.593 52.9176 40.5237 52.7504 40.4005 52.6271C40.2772 52.5038 40.11 52.4346 39.9357 52.4346Z" fill="#2583F4"/>
<path d="M58.5529 45.2515V39.9542H59.5196C59.6814 39.9346 59.8305 39.8564 59.9386 39.7344C60.0468 39.6124 60.1064 39.4551 60.1064 39.292C60.1064 39.129 60.0468 38.9717 59.9386 38.8497C59.8305 38.7277 59.6814 38.6495 59.5196 38.6299H44.7103C44.5484 38.6495 44.3994 38.7277 44.2912 38.8497C44.1831 38.9717 44.1234 39.129 44.1234 39.292C44.1234 39.4551 44.1831 39.6124 44.2912 39.7344C44.3994 39.8564 44.5484 39.9346 44.7103 39.9542H45.6769V45.2515C45.6804 46.4054 46.0158 47.5339 46.6432 48.5024C47.2705 49.4708 48.1633 50.2383 49.2149 50.7132C48.1601 51.198 47.2673 51.9764 46.6433 52.9552C46.0193 53.9341 45.6905 55.072 45.6963 56.2329V61.7525H44.7296C44.5553 61.7525 44.3881 61.8218 44.2648 61.9451C44.1415 62.0683 44.0723 62.2355 44.0723 62.4099C44.0723 62.5842 44.1415 62.7514 44.2648 62.8747C44.3881 62.998 44.5553 63.0672 44.7296 63.0672H59.5389C59.7133 63.0672 59.8805 62.998 60.0037 62.8747C60.127 62.7514 60.1963 62.5842 60.1963 62.4099C60.1963 62.2355 60.127 62.0683 60.0037 61.9451C59.8805 61.8218 59.7133 61.7525 59.5389 61.7525H58.5723V56.2329C58.5671 55.0781 58.2311 53.9491 57.604 52.9794C56.977 52.0097 56.0852 51.2401 55.0343 50.7615C56.0898 50.2804 56.9836 49.5042 57.6079 48.5266C58.2322 47.5489 58.5604 46.4115 58.5529 45.2515ZM57.1996 56.2329V61.7525H47.0206V56.2329C47.0232 54.9877 47.5189 53.7942 48.3994 52.9137C49.2799 52.0332 50.4734 51.5374 51.7186 51.5349H52.5306C53.7708 51.5451 54.9568 52.0442 55.8311 52.9239C56.7053 53.8036 57.1971 54.9927 57.1996 56.2329ZM52.5306 49.9495H51.7186C50.4734 49.947 49.2799 49.4512 48.3994 48.5707C47.5189 47.6902 47.0232 46.4967 47.0206 45.2515V39.9542H57.1996V45.2515C57.1971 46.4918 56.7053 47.6809 55.8311 48.5605C54.9568 49.4402 53.7708 49.9394 52.5306 49.9495Z" fill="#2583F4"/>
</g>
<defs>
<clipPath id="clip0_21_51">
<rect width="58" height="58" fill="white" transform="translate(5 5)"/>
</clipPath>
</defs>
</svg>
