<svg width="68" height="68" viewBox="0 0 68 68" fill="none" xmlns="http://www.w3.org/2000/svg">
<g clip-path="url(#clip0_21_22)">
<path d="M39.9314 58.9329H20.7961C19.5274 58.9329 18.3106 58.4289 17.4135 57.5318C16.5163 56.6346 16.0123 55.4178 16.0123 54.1491V36.8604H39.9314C40.0938 36.8604 40.2495 36.7959 40.3644 36.6811C40.4792 36.5662 40.5437 36.4105 40.5437 36.2481C40.5437 36.0857 40.4792 35.9299 40.3644 35.8151C40.2495 35.7003 40.0938 35.6357 39.9314 35.6357H12.9698C12.8074 35.6357 12.6517 35.7003 12.5368 35.8151C12.422 35.9299 12.3575 36.0857 12.3575 36.2481C12.3562 36.3288 12.3712 36.409 12.4015 36.4839C12.4318 36.5588 12.4768 36.6268 12.534 36.6839C12.5911 36.741 12.6591 36.7861 12.734 36.8164C12.8088 36.8467 12.8891 36.8617 12.9698 36.8604H14.8068V54.1491C14.8093 55.7317 15.4392 57.2488 16.5582 58.3679C17.6773 59.4869 19.1944 60.1168 20.777 60.1193H39.9122C40.0746 60.1193 40.2304 60.0548 40.3452 59.9399C40.4601 59.8251 40.5246 59.6694 40.5246 59.507C40.5246 59.3446 40.4601 59.1888 40.3452 59.074C40.2304 58.9591 40.0746 58.8946 39.9122 58.8946L39.9314 58.9329Z" fill="#2583F4"/>
<path d="M36.1049 44.0654H23.5235C23.3611 44.0654 23.2053 44.1299 23.0905 44.2448C22.9756 44.3596 22.9111 44.5154 22.9111 44.6778C22.9111 44.8402 22.9756 44.9959 23.0905 45.1107C23.2053 45.2256 23.3611 45.2901 23.5235 45.2901H36.1049C36.1853 45.2901 36.2649 45.2742 36.3392 45.2435C36.4135 45.2127 36.481 45.1676 36.5379 45.1107C36.5947 45.0539 36.6398 44.9864 36.6706 44.9121C36.7014 44.8378 36.7172 44.7582 36.7172 44.6778C36.7172 44.5973 36.7014 44.5177 36.6706 44.4434C36.6398 44.3691 36.5947 44.3016 36.5379 44.2448C36.481 44.1879 36.4135 44.1428 36.3392 44.112C36.2649 44.0813 36.1853 44.0654 36.1049 44.0654Z" fill="#2583F4"/>
<path d="M11.2764 22.5752C11.114 22.5752 10.9583 22.6397 10.8434 22.7545C10.7286 22.8694 10.6641 23.0251 10.6641 23.1875C10.6641 23.3499 10.7286 23.5057 10.8434 23.6205C10.9583 23.7353 11.114 23.7999 11.2764 23.7999H14.3476C14.51 23.7999 14.6658 23.7353 14.7806 23.6205C14.8954 23.5057 14.9599 23.3499 14.9599 23.1875C14.9599 23.0251 14.8954 22.8694 14.7806 22.7545C14.6658 22.6397 14.51 22.5752 14.3476 22.5752H11.2764Z" fill="#2583F4"/>
<path d="M36.1049 50.1885H23.5235C23.3611 50.1885 23.2053 50.253 23.0905 50.3678C22.9756 50.4827 22.9111 50.6384 22.9111 50.8008C22.9111 50.9632 22.9756 51.119 23.0905 51.2338C23.2053 51.3486 23.3611 51.4131 23.5235 51.4131H36.1049C36.2673 51.4131 36.423 51.3486 36.5379 51.2338C36.6527 51.119 36.7172 50.9632 36.7172 50.8008C36.7172 50.6384 36.6527 50.4827 36.5379 50.3678C36.423 50.253 36.2673 50.1885 36.1049 50.1885Z" fill="#2583F4"/>
<path d="M12.9698 45.4425H10.9702C9.70145 45.4425 8.48467 44.9385 7.58753 44.0413C6.69039 43.1442 6.18638 41.9274 6.18638 40.6587V22.0018C6.18638 20.7331 6.69039 19.5163 7.58753 18.6191C8.48467 17.722 9.70145 17.218 10.9702 17.218H52.9529C54.2217 17.218 55.4384 17.722 56.3356 18.6191C57.2327 19.5163 57.7367 20.7331 57.7367 22.0018V37.4727C57.7367 37.6351 57.8012 37.7908 57.9161 37.9056C58.0309 38.0205 58.1866 38.085 58.349 38.085C58.5114 38.085 58.6672 38.0205 58.782 37.9056C58.8969 37.7908 58.9614 37.6351 58.9614 37.4727V22.0018C58.9588 20.4192 58.329 18.9021 57.21 17.783C56.0909 16.664 54.5738 16.0341 52.9912 16.0316H49.1641V9.89877C49.1642 9.25224 49.0362 8.6121 48.7876 8.01527C48.5391 7.41843 48.1748 6.8767 47.7159 6.42132C47.2569 5.96594 46.7124 5.60591 46.1136 5.36199C45.5149 5.11808 44.8737 4.9951 44.2272 5.00015H20.9301C19.6309 5.00015 18.3849 5.51625 17.4662 6.43492C16.5476 7.35359 16.0315 8.59958 16.0315 9.89877V16.0316H10.9702C9.38758 16.0341 7.8705 16.664 6.75142 17.783C5.63234 18.9021 5.00253 20.4192 5 22.0018V40.6969C5.00253 42.2796 5.63234 43.7966 6.75142 44.9157C7.8705 46.0348 9.38758 46.6646 10.9702 46.6671H12.9698C13.1322 46.6671 13.288 46.6026 13.4028 46.4878C13.5176 46.373 13.5822 46.2172 13.5822 46.0548C13.5822 45.8924 13.5176 45.7367 13.4028 45.6218C13.288 45.507 13.1322 45.4425 12.9698 45.4425ZM17.2944 9.89877C17.2969 8.9353 17.6808 8.01201 18.3621 7.33073C19.0433 6.64946 19.9666 6.2656 20.9301 6.26308H44.2272C45.1907 6.2656 46.114 6.64946 46.7953 7.33073C47.4766 8.01201 47.8604 8.9353 47.8629 9.89877V15.9838H17.2944V9.89877Z" fill="#2583F4"/>
<path d="M50.9249 61.4397C48.5369 61.4397 46.2024 60.7315 44.2168 59.4048C42.2312 58.0781 40.6836 56.1923 39.7697 53.986C38.8558 51.7797 38.6167 49.352 39.0826 47.0098C39.5485 44.6676 40.6985 42.5161 42.3871 40.8275C44.0757 39.1389 46.2272 37.9889 48.5693 37.523C50.9115 37.0571 53.3393 37.2962 55.5456 38.2101C57.7519 39.124 59.6376 40.6716 60.9644 42.6572C62.2911 44.6428 62.9993 46.9773 62.9993 49.3654C62.9967 52.5669 61.7238 55.6366 59.46 57.9004C57.1961 60.1642 54.1265 61.4372 50.9249 61.4397ZM50.9249 38.4774C48.7715 38.4774 46.6664 39.116 44.8759 40.3124C43.0854 41.5087 41.6899 43.2092 40.8658 45.1987C40.0417 47.1882 39.8261 49.3774 40.2462 51.4895C40.6663 53.6015 41.7033 55.5416 43.226 57.0643C44.7487 58.587 46.6887 59.624 48.8008 60.0441C50.9128 60.4642 53.1021 60.2486 55.0916 59.4245C57.0811 58.6004 58.7815 57.2049 59.9779 55.4144C61.1743 53.6239 61.8129 51.5188 61.8129 49.3654C61.8078 46.4792 60.6591 43.7128 58.6183 41.672C56.5775 39.6312 53.811 38.4825 50.9249 38.4774Z" fill="#2583F4"/>
<path d="M48.8569 56.5885L42.0161 49.7476C41.9606 49.6925 41.9165 49.6269 41.8864 49.5546C41.8563 49.4824 41.8408 49.4049 41.8408 49.3266C41.8408 49.2484 41.8563 49.1709 41.8864 49.0986C41.9165 49.0264 41.9606 48.9608 42.0161 48.9057C42.0706 48.8489 42.1359 48.8038 42.2083 48.773C42.2806 48.7421 42.3584 48.7263 42.4371 48.7263C42.5157 48.7263 42.5935 48.7421 42.6659 48.773C42.7382 48.8038 42.8036 48.8489 42.858 48.9057L48.8474 54.895L58.9221 44.8394C59.0337 44.7278 59.1852 44.665 59.3431 44.665C59.501 44.665 59.6524 44.7278 59.764 44.8394C59.8757 44.9511 59.9384 45.1025 59.9384 45.2604C59.9384 45.4183 59.8757 45.5697 59.764 45.6814L48.8569 56.5885Z" fill="#2583F4"/>
</g>
<defs>
<clipPath id="clip0_21_22">
<rect width="58" height="57" fill="white" transform="translate(5 5)"/>
</clipPath>
</defs>
</svg>
