<svg width="68" height="68" viewBox="0 0 68 68" fill="none" xmlns="http://www.w3.org/2000/svg">
<g clip-path="url(#clip0_21_31)">
<path d="M51.5303 36.4896V51.0996C51.5303 51.2693 51.5977 51.4321 51.7177 51.5522C51.8378 51.6722 52.0005 51.7396 52.1703 51.7396C52.34 51.7396 52.5028 51.6722 52.6228 51.5522C52.7428 51.4321 52.8103 51.2693 52.8103 51.0996V36.4896C52.8103 36.3199 52.7428 36.1571 52.6228 36.0371C52.5028 35.917 52.34 35.8496 52.1703 35.8496C52.0005 35.8496 51.8378 35.917 51.7177 36.0371C51.5977 36.1571 51.5303 36.3199 51.5303 36.4896Z" fill="#2583F4"/>
<path d="M40.5104 61.0004H20.5104C19.1843 61.0004 17.9126 60.4736 16.9749 59.5359C16.0372 58.5982 15.5104 57.3265 15.5104 56.0004V37.9304H40.5104C40.6802 37.9304 40.843 37.863 40.963 37.7429C41.083 37.6229 41.1504 37.4601 41.1504 37.2904C41.1504 37.1207 41.083 36.9579 40.963 36.8378C40.843 36.7178 40.6802 36.6504 40.5104 36.6504H12.3304C12.1607 36.6504 11.9979 36.7178 11.8779 36.8378C11.7579 36.9579 11.6904 37.1207 11.6904 37.2904C11.6904 37.4601 11.7579 37.6229 11.8779 37.7429C11.9979 37.863 12.1607 37.9304 12.3304 37.9304H14.2504V56.0004C14.2531 57.6545 14.9114 59.2402 16.081 60.4098C17.2507 61.5795 18.8363 62.2377 20.4904 62.2404H40.4904C40.6602 62.2404 40.823 62.173 40.943 62.0529C41.063 61.9329 41.1304 61.7701 41.1304 61.6004C41.1304 61.4306 41.063 61.2679 40.943 61.1478C40.823 61.0278 40.6602 60.9604 40.4904 60.9604L40.5104 61.0004Z" fill="#2583F4"/>
<path d="M36.5097 45.46H23.3597C23.19 45.46 23.0272 45.5274 22.9072 45.6474C22.7872 45.7674 22.7197 45.9302 22.7197 46.1C22.7197 46.2697 22.7872 46.4325 22.9072 46.5525C23.0272 46.6725 23.19 46.74 23.3597 46.74H36.5097C36.6795 46.74 36.8423 46.6725 36.9623 46.5525C37.0823 46.4325 37.1497 46.2697 37.1497 46.1C37.1497 45.9302 37.0823 45.7674 36.9623 45.6474C36.8423 45.5274 36.6795 45.46 36.5097 45.46Z" fill="#2583F4"/>
<path d="M10.5599 23C10.3902 23 10.2274 23.0674 10.1074 23.1875C9.98735 23.3075 9.91992 23.4703 9.91992 23.64C9.91992 23.8097 9.98735 23.9725 10.1074 24.0925C10.2274 24.2126 10.3902 24.28 10.5599 24.28H13.7699C13.9397 24.28 14.1024 24.2126 14.2225 24.0925C14.3425 23.9725 14.4099 23.8097 14.4099 23.64C14.4099 23.4703 14.3425 23.3075 14.2225 23.1875C14.1024 23.0674 13.9397 23 13.7699 23H10.5599Z" fill="#2583F4"/>
<path d="M36.5097 51.8604H23.3597C23.19 51.8604 23.0272 51.9277 22.9072 52.0477C22.7872 52.1677 22.7197 52.3306 22.7197 52.5004C22.7197 52.6701 22.7872 52.8329 22.9072 52.9529C23.0272 53.0729 23.19 53.1404 23.3597 53.1404H36.5097C36.6795 53.1404 36.8423 53.0729 36.9623 52.9529C37.0823 52.8329 37.1497 52.6701 37.1497 52.5004C37.1497 52.3306 37.0823 52.1677 36.9623 52.0477C36.8423 51.9277 36.6795 51.8604 36.5097 51.8604Z" fill="#2583F4"/>
<path d="M12.33 46.9H10.24C9.58339 46.9 8.93321 46.7707 8.32658 46.5194C7.71995 46.2682 7.16876 45.8999 6.70447 45.4356C5.76678 44.4979 5.24 43.2261 5.24 41.9V22.4C5.24 21.074 5.76678 19.8022 6.70447 18.8645C7.64215 17.9268 8.91392 17.4 10.24 17.4H54.12C55.4461 17.4 56.7178 17.9268 57.6555 18.8645C58.5932 19.8022 59.12 21.074 59.12 22.4V38.57C59.12 38.7398 59.1874 38.9026 59.3075 39.0226C59.4275 39.1426 59.5903 39.21 59.76 39.21C59.9297 39.21 60.0925 39.1426 60.2125 39.0226C60.3326 38.9026 60.4 38.7398 60.4 38.57V22.4C60.3974 20.7459 59.7391 19.1603 58.5694 17.9906C57.3998 16.821 55.8141 16.1627 54.16 16.16H50.16V9.75004C50.16 9.07429 50.0263 8.40523 49.7665 7.78142C49.5067 7.15761 49.1259 6.5914 48.6463 6.11544C48.1666 5.63947 47.5974 5.26317 46.9716 5.00823C46.3458 4.7533 45.6757 4.62476 45 4.63004H20.65C19.2921 4.63004 17.9898 5.16947 17.0296 6.12965C16.0694 7.08984 15.53 8.39213 15.53 9.75004V16.16H10.24C8.58586 16.1627 7.00023 16.821 5.83057 17.9906C4.66092 19.1603 4.00264 20.7459 4 22.4V41.94C4.00264 43.5942 4.66092 45.1798 5.83057 46.3495C7.00023 47.5191 8.58586 48.1774 10.24 48.18H12.33C12.4997 48.18 12.6625 48.1126 12.7825 47.9926C12.9026 47.8726 12.97 47.7098 12.97 47.54C12.97 47.3703 12.9026 47.2075 12.7825 47.0875C12.6625 46.9675 12.4997 46.9 12.33 46.9ZM16.85 9.75004C16.8657 8.75173 17.2727 7.79948 17.9834 7.09817C18.694 6.39686 19.6516 6.00254 20.65 6.00004H45C46.007 6.00268 46.972 6.40388 47.6841 7.11595C48.3962 7.82802 48.7974 8.79303 48.8 9.80004V16.16H16.85V9.75004Z" fill="#2583F4"/>
<path d="M55.3498 39.5001C55.1801 39.4536 54.9988 39.4766 54.846 39.5638C54.6932 39.651 54.5812 39.7953 54.5348 39.9651C54.4884 40.1348 54.5113 40.316 54.5985 40.4689C54.6857 40.6217 54.8301 40.7336 54.9998 40.7801C57.3267 41.4334 59.358 42.8673 60.7528 44.8412C62.1476 46.815 62.8209 49.2085 62.6598 51.6201C62.465 54.3972 61.1762 56.9836 59.0764 58.8116C56.9766 60.6395 54.2373 61.5597 51.4598 61.3701C49.0136 61.2017 46.7035 60.1826 44.93 58.4895C43.1565 56.7963 42.0315 54.5359 41.7501 52.1001C41.4686 49.6644 42.0485 47.2069 43.3891 45.1539C44.7297 43.1009 46.7465 41.5818 49.0898 40.8601C49.1732 40.8345 49.2507 40.7927 49.318 40.7371C49.3852 40.6815 49.4408 40.6133 49.4817 40.5362C49.5226 40.4591 49.5478 40.3747 49.5561 40.2879C49.5643 40.2011 49.5554 40.1134 49.5298 40.0301C49.5042 39.9467 49.4624 39.8691 49.4068 39.8019C49.3513 39.7347 49.283 39.679 49.2059 39.6382C49.1289 39.5973 49.0445 39.572 48.9577 39.5638C48.8708 39.5555 48.7832 39.5645 48.6998 39.5901C46.0647 40.407 43.798 42.1193 42.2918 44.4307C40.7856 46.7421 40.1345 49.5072 40.4513 52.2478C40.7681 54.9883 42.0327 57.532 44.0265 59.4389C46.0203 61.3457 48.6178 62.4957 51.3698 62.6901H52.1998C55.1903 62.6902 58.0698 61.5578 60.2591 59.5206C62.4484 57.4835 63.7849 54.6928 63.9998 51.7101C64.1803 48.9908 63.4188 46.2924 61.8434 44.0687C60.2681 41.845 57.975 40.2317 55.3498 39.5001Z" fill="#2583F4"/>
</g>
<defs>
<clipPath id="clip0_21_31">
<rect width="60" height="59" fill="white" transform="translate(4 4)"/>
</clipPath>
</defs>
</svg>
