<svg width="68" height="68" viewBox="0 0 68 68" fill="none" xmlns="http://www.w3.org/2000/svg">
<g clip-path="url(#clip0_21_59)">
<path d="M51.8 38.9C45.1 38.9 39.6 44.4 39.6 51.1C39.6 57.8 45.1 63.3 51.8 63.3C58.5 63.3 64 57.8 64 51.1C64 44.4 58.5 38.9 51.8 38.9ZM40.9 51.1C40.9 48.5 41.8 46 43.6 44L58.9 59.3C54.4 63.2 47.5 62.7 43.6 58.2C41.9 56.2 40.9 53.7 40.9 51.1ZM59.8 58.4L44.5 43C49 39 55.8 39.4 59.9 43.8C63.6 48 63.6 54.3 59.8 58.4ZM37.2 50.4H34.5V11.1H44.6V21C44.6 22.7 46 24.1 47.7 24.1H57.6V37.9C57.6 38.3 57.9 38.5 58.3 38.5C58.7 38.5 58.9 38.2 58.9 37.9V23.9C58.9 23.8 58.9 23.7 58.9 23.6V23.5C58.9 23.4 58.9 23.3 58.8 23.2C58.7 22.4 58.3 21.7 57.7 21.2L47.5 10.9C47 10.4 46.3 10 45.6 9.9C45.5 9.9 45.4 9.8 45.3 9.8H45.2C45.1 9.8 45 9.8 44.9 9.8H34.6V5.6C34.6 5.2 34.3 5 33.9 5C33.5 5 33.3 5.3 33.3 5.6V56C33.3 56.4 33.6 56.6 34 56.6C34.4 56.6 34.6 56.3 34.6 56V51.8H37.3C37.7 51.8 37.9 51.5 37.9 51.1C37.9 50.7 37.6 50.4 37.2 50.4ZM56.9 22.1C57.1 22.3 57.3 22.6 57.4 22.8H47.7C46.7 22.8 45.9 22 46 21V11.4C46.2 11.5 46.4 11.6 46.6 11.8L56.9 22.1ZM4 33.2V30.6C4 30.2 4.3 30 4.6 30C4.9 30 5.2 30.3 5.2 30.6V33.2C5.2 33.6 4.9 33.8 4.6 33.8C4.3 33.9 4 33.6 4 33.2ZM4 28V25.4C4 25 4.3 24.8 4.6 24.8C4.9 24.8 5.2 25.1 5.2 25.4V28C5.2 28.4 4.9 28.6 4.6 28.6C4.3 28.6 4 28.4 4 28ZM4 22.8V20.2C4 19.8 4.3 19.6 4.6 19.6C4.9 19.6 5.2 19.9 5.2 20.2V22.8C5.2 23.2 4.9 23.4 4.6 23.4C4.3 23.4 4 23.2 4 22.8ZM4 38.4V35.8C4 35.4 4.3 35.2 4.6 35.2C4.9 35.2 5.2 35.5 5.2 35.8V38.4C5.3 38.8 5 39.1 4.7 39.1C4.4 39.1 4 38.8 4 38.4ZM4 17.6V15.4C4 15.2 4 15.1 4 14.9C4 14.5 4.4 14.3 4.7 14.3C5.1 14.3 5.3 14.7 5.3 15C5.3 15.1 5.3 15.2 5.3 15.3V17.5C5.3 17.9 5 18.1 4.7 18.1C4.3 18.3 4 18 4 17.6ZM4 43.6V41C4 40.6 4.3 40.4 4.6 40.4C4.9 40.4 5.2 40.7 5.2 41V43.6C5.2 44 4.9 44.2 4.6 44.2C4.3 44.2 4 44 4 43.6ZM25.2 10.4C25.2 10 25.5 9.8 25.8 9.8H28.4C28.8 9.8 29 10.1 29 10.5C29 10.9 28.7 11.1 28.4 11.1H25.8C25.5 11.1 25.2 10.8 25.2 10.4ZM14.8 10.4C14.8 10 15.1 9.8 15.4 9.8H18C18.4 9.8 18.7 10.1 18.7 10.5C18.7 10.8 18.4 11.1 18 11.1H15.4C15 11.1 14.8 10.8 14.8 10.4ZM20 10.4C20 10 20.3 9.8 20.6 9.8H23.2C23.6 9.8 23.9 10.1 23.9 10.4C23.9 10.8 23.6 11.1 23.3 11.1H20.7C20.3 11.1 20 10.8 20 10.4ZM26.2 51.1C26.2 51.5 25.9 51.7 25.6 51.7H23C22.6 51.7 22.3 51.4 22.3 51.1C22.3 50.8 22.6 50.4 22.9 50.4H25.5C25.9 50.5 26.2 50.8 26.2 51.1ZM21 51.1C21 51.5 20.7 51.7 20.4 51.7H17.8C17.4 51.7 17.1 51.4 17.1 51.1C17.1 50.8 17.4 50.4 17.7 50.4H20.3C20.7 50.4 21 50.7 21 51.1ZM31.4 51.1C31.4 51.5 31.1 51.7 30.8 51.7H28.2C27.8 51.7 27.6 51.4 27.6 51C27.6 50.6 27.9 50.4 28.2 50.4H30.8C31.1 50.4 31.4 50.7 31.4 51.1ZM6 48.3C6.2 48.6 6.1 49 5.9 49.2C5.8 49.3 5.7 49.3 5.5 49.3C5.3 49.3 5.1 49.2 5 49C4.4 48.2 4.1 47.2 4 46.2C4 45.8 4.3 45.5 4.6 45.5C5 45.5 5.3 45.8 5.3 46.1C5.3 47 5.6 47.7 6 48.3ZM15.8 51.1C15.8 51.5 15.5 51.7 15.2 51.7H12.5C12.1 51.7 11.9 51.4 11.9 51C11.9 50.6 12.2 50.4 12.5 50.4H15.1C15.5 50.4 15.8 50.7 15.8 51.1ZM8 11.7C7.3 12 6.7 12.5 6.2 13.1C6 13.3 5.9 13.3 5.7 13.3C5.6 13.3 5.4 13.2 5.3 13.2C5 13 4.9 12.6 5.2 12.3C5.8 11.5 6.6 10.9 7.5 10.5C7.8 10.3 8.2 10.5 8.4 10.8C8.5 11.1 8.3 11.5 8 11.7ZM10.6 51.1C10.6 51.4 10.3 51.7 10 51.7H9.9C8.9 51.6 8 51.3 7.2 50.9C6.9 50.8 6.7 50.4 6.9 50C7 49.7 7.4 49.5 7.8 49.7H7.9C8.5 50.1 9.2 50.3 10 50.4C10.3 50.4 10.6 50.7 10.6 51.1ZM12.8 11.1H10.2C9.9 11.1 9.6 10.8 9.6 10.5C9.6 10.1 9.8 9.8 10.2 9.8H12.8C13.2 9.8 13.4 10.1 13.4 10.4C13.4 10.7 13.2 11.1 12.8 11.1Z" fill="#2583F4"/>
</g>
<defs>
<clipPath id="clip0_21_59">
<rect width="60" height="59" fill="white" transform="translate(4 5)"/>
</clipPath>
</defs>
</svg>
