<svg width="68" height="68" viewBox="0 0 68 68" fill="none" xmlns="http://www.w3.org/2000/svg">
<g clip-path="url(#clip0_21_40)">
<path d="M55.1704 7.99957C55.0566 7.889 54.9041 7.82715 54.7454 7.82715C54.5867 7.82715 54.4343 7.889 54.3204 7.99957C54.2632 8.05461 54.2178 8.12062 54.1867 8.19365C54.1557 8.26667 54.1396 8.34521 54.1396 8.42457C54.1396 8.50393 54.1557 8.58247 54.1867 8.65549C54.2178 8.72852 54.2632 8.79453 54.3204 8.84957C59.7406 14.2711 62.7855 21.6234 62.7855 29.2896C62.7855 36.9558 59.7406 44.3081 54.3204 49.7296C54.2098 49.8434 54.148 49.9959 54.148 50.1546C54.148 50.3133 54.2098 50.4657 54.3204 50.5796C54.3765 50.6367 54.4435 50.6821 54.5173 50.713C54.5912 50.7439 54.6705 50.7598 54.7505 50.7596C54.8291 50.7596 54.9068 50.7436 54.979 50.7127C55.0512 50.6817 55.1162 50.6365 55.1704 50.5796C57.9685 47.785 60.1883 44.4662 61.7028 40.8131C63.2173 37.16 63.9967 33.2442 63.9967 29.2896C63.9967 25.335 63.2173 21.4191 61.7028 17.766C60.1883 14.1129 57.9685 10.7942 55.1704 7.99957Z" fill="#2583F4"/>
<path d="M45.7798 16.5395C45.6686 16.655 45.6064 16.8091 45.6064 16.9695C45.6064 17.1298 45.6686 17.2839 45.7798 17.3995C47.3541 18.9505 48.6029 20.8002 49.453 22.8402C50.303 24.8802 50.7371 27.0695 50.7298 29.2795C50.7177 33.7298 48.9496 37.9955 45.8098 41.1495C45.7378 41.2353 45.6909 41.3394 45.6741 41.4502C45.6574 41.5609 45.6715 41.6742 45.7149 41.7775C45.7583 41.8808 45.8293 41.9702 45.9201 42.0358C46.0109 42.1014 46.1181 42.1407 46.2298 42.1495C46.3098 42.1497 46.3891 42.1338 46.463 42.1029C46.5368 42.072 46.6037 42.0266 46.6598 41.9695C50.0299 38.5927 51.9279 34.0202 51.9398 29.2495C51.946 26.8805 51.4805 24.5339 50.5706 22.3466C49.6607 20.1593 48.3244 18.1751 46.6398 16.5095C46.5204 16.4022 46.3641 16.3454 46.2037 16.351C46.0434 16.3566 45.8914 16.4241 45.7798 16.5395Z" fill="#2583F4"/>
<path d="M13.6802 7.99957C13.5664 7.889 13.4139 7.82715 13.2552 7.82715C13.0965 7.82715 12.9441 7.889 12.8302 7.99957C10.0322 10.7942 7.81243 14.1129 6.29793 17.766C4.78344 21.4191 4.00391 25.335 4.00391 29.2896C4.00391 33.2442 4.78344 37.16 6.29793 40.8131C7.81243 44.4662 10.0322 47.785 12.8302 50.5796C12.8844 50.6365 12.9496 50.6817 13.0218 50.7127C13.094 50.7436 13.1717 50.7596 13.2502 50.7596C13.3303 50.7598 13.4096 50.7439 13.4834 50.713C13.5573 50.6821 13.6242 50.6367 13.6802 50.5796C13.7908 50.4657 13.8526 50.3133 13.8526 50.1546C13.8526 49.9959 13.7908 49.8434 13.6802 49.7296C8.26005 44.3081 5.21514 36.9558 5.21514 29.2896C5.21514 21.6234 8.26005 14.2711 13.6802 8.84957C13.7374 8.79453 13.7829 8.72852 13.8139 8.65549C13.845 8.58247 13.861 8.50393 13.861 8.42457C13.861 8.34521 13.845 8.26667 13.8139 8.19365C13.7829 8.12062 13.7374 8.05461 13.6802 7.99957Z" fill="#2583F4"/>
<path d="M22.2201 16.5396C22.1046 16.4283 21.9505 16.3662 21.7901 16.3662C21.6297 16.3662 21.4756 16.4283 21.3601 16.5396C19.688 18.2111 18.3616 20.1957 17.4567 22.3799C16.5517 24.5641 16.0859 26.9053 16.0859 29.2696C16.0859 31.6338 16.5517 33.975 17.4567 36.1592C18.3616 38.3435 19.688 40.328 21.3601 41.9996C21.4151 42.0567 21.4811 42.1022 21.5542 42.1333C21.6272 42.1643 21.7057 42.1803 21.7851 42.1803C21.8644 42.1803 21.943 42.1643 22.016 42.1333C22.089 42.1022 22.155 42.0567 22.2101 41.9996C22.2673 41.9445 22.3127 41.8785 22.3438 41.8055C22.3748 41.7325 22.3909 41.6539 22.3909 41.5746C22.3909 41.4952 22.3748 41.4167 22.3438 41.3436C22.3127 41.2706 22.2673 41.2046 22.2101 41.1496C20.6454 39.5931 19.4038 37.7427 18.5565 35.7048C17.7093 33.6668 17.2731 31.4816 17.2731 29.2746C17.2731 27.0675 17.7093 24.8823 18.5565 22.8444C19.4038 20.8064 20.6454 18.9561 22.2101 17.3996C22.3227 17.2853 22.3866 17.1319 22.3885 16.9716C22.3903 16.8112 22.33 16.6564 22.2201 16.5396Z" fill="#2583F4"/>
<path d="M34.0002 24.75C32.8083 24.6732 31.6346 25.0724 30.7366 25.8599C29.8386 26.6474 29.2896 27.759 29.2102 28.9507C29.1307 30.1425 29.5273 31.3171 30.3128 32.2168C31.0983 33.1165 32.2087 33.668 33.4002 33.75V58.67C33.4002 58.8292 33.4634 58.9818 33.576 59.0943C33.6885 59.2068 33.8411 59.27 34.0002 59.27C34.1594 59.27 34.312 59.2068 34.4245 59.0943C34.537 58.9818 34.6002 58.8292 34.6002 58.67V33.73C35.7918 33.648 36.9021 33.0965 37.6877 32.1968C38.4732 31.2971 38.8697 30.1225 38.7903 28.9307C38.7108 27.739 38.1619 26.6274 37.2639 25.8399C36.3659 25.0524 35.1921 24.6532 34.0002 24.73V24.75ZM34.0002 32.59C33.3436 32.59 32.7017 32.3953 32.1557 32.0305C31.6098 31.6657 31.1842 31.1472 30.9329 30.5406C30.6817 29.9339 30.6159 29.2664 30.744 28.6223C30.8721 27.9783 31.1883 27.3868 31.6526 26.9225C32.1169 26.4581 32.7085 26.1419 33.3525 26.0138C33.9965 25.8857 34.6641 25.9515 35.2707 26.2028C35.8774 26.454 36.3959 26.8796 36.7607 27.4256C37.1255 27.9715 37.3202 28.6134 37.3202 29.27C37.3202 30.1506 36.9704 30.995 36.3478 31.6176C35.7252 32.2403 34.8807 32.59 34.0002 32.59Z" fill="#2583F4"/>
</g>
<defs>
<clipPath id="clip0_21_40">
<rect width="60" height="53" fill="white" transform="translate(4 7)"/>
</clipPath>
</defs>
</svg>
